<?xml version="1.0" encoding="UTF-8"?>
<svg xmlns="http://www.w3.org/2000/svg" xmlns:xlink="http://www.w3.org/1999/xlink" width="75pt" height="74.999997pt" viewBox="0 0 75 74.999997" version="1.2">
<g id="surface1">
<rect x="0" y="0" width="75" height="74.999997" style="fill:rgb(100%,100%,100%);fill-opacity:1;stroke:none;"/>
<rect x="0" y="0" width="75" height="74.999997" style="fill:rgb(100%,100%,100%);fill-opacity:1;stroke:none;"/>
<rect x="0" y="0" width="75" height="74.999997" style="fill:rgb(100%,100%,100%);fill-opacity:1;stroke:none;"/>
<path style=" stroke:none;fill-rule:nonzero;fill:rgb(61.959839%,81.959534%,89.7995%);fill-opacity:1;" d="M 11.847656 59.117188 C 11.722656 58.90625 11.597656 58.695312 11.472656 58.484375 C 11.59375 58.695312 11.722656 58.90625 11.847656 59.117188 Z M 11.847656 59.117188 "/>
<path style=" stroke:none;fill-rule:nonzero;fill:rgb(61.959839%,81.959534%,89.7995%);fill-opacity:1;" d="M 11.472656 58.484375 C 11.238281 58.070312 11.019531 57.652344 10.804688 57.226562 C 11.019531 57.652344 11.238281 58.070312 11.472656 58.484375 Z M 11.472656 58.484375 "/>
<path style=" stroke:none;fill-rule:nonzero;fill:rgb(61.959839%,81.959534%,89.7995%);fill-opacity:1;" d="M 10.804688 57.226562 C 10.707031 57.039062 10.609375 56.851562 10.515625 56.660156 C 10.609375 56.851562 10.707031 57.039062 10.804688 57.226562 Z M 10.804688 57.226562 "/>
<path style=" stroke:none;fill-rule:nonzero;fill:rgb(61.959839%,81.959534%,89.7995%);fill-opacity:1;" d="M 13.199219 61.195312 L 13.21875 61.195312 C 13.140625 61.082031 13.054688 60.976562 12.976562 60.863281 C 13.054688 60.972656 13.121094 61.085938 13.199219 61.195312 Z M 13.199219 61.195312 "/>
<path style=" stroke:none;fill-rule:nonzero;fill:rgb(61.959839%,81.959534%,89.7995%);fill-opacity:1;" d="M 12.976562 60.863281 C 12.835938 60.660156 12.695312 60.453125 12.558594 60.242188 C 12.695312 60.453125 12.835938 60.660156 12.976562 60.863281 Z M 12.976562 60.863281 "/>
<path style=" stroke:none;fill-rule:nonzero;fill:rgb(61.959839%,81.959534%,89.7995%);fill-opacity:1;" d="M 12.558594 60.242188 C 12.3125 59.875 12.074219 59.5 11.847656 59.117188 C 12.078125 59.5 12.3125 59.875 12.558594 60.242188 Z M 12.558594 60.242188 "/>
<path style=" stroke:none;fill-rule:nonzero;fill:rgb(61.959839%,81.959534%,89.7995%);fill-opacity:1;" d="M 63.835938 29.84375 L 51.148438 19.863281 L 58.019531 25.269531 L 54.25 26.042969 C 47.355469 27.453125 43.835938 28.207031 37.039062 26.386719 L 36.078125 26.128906 L 40.636719 35.074219 L 35.832031 33.789062 L 31.703125 29.09375 C 30.871094 29.714844 29.851562 30.097656 28.730469 30.097656 L 23.632812 30.097656 C 22.902344 35.023438 18.671875 38.804688 13.546875 38.804688 L 8.023438 38.804688 C 7.746094 40.425781 7.585938 42.082031 7.585938 43.78125 C 7.585938 45.046875 7.675781 46.289062 7.828125 47.511719 L 12.941406 47.511719 C 15.828125 47.511719 18.542969 48.894531 20.238281 51.230469 C 23.257812 55.375 20.292969 61.195312 15.164062 61.195312 L 13.222656 61.195312 C 18.636719 68.71875 27.457031 73.632812 37.4375 73.632812 C 53.925781 73.632812 67.289062 60.265625 67.289062 43.78125 C 67.289062 38.746094 66.035156 34.003906 63.835938 29.84375 Z M 63.835938 29.84375 "/>
<path style=" stroke:none;fill-rule:nonzero;fill:rgb(61.959839%,81.959534%,89.7995%);fill-opacity:1;" d="M 29.769531 26.890625 L 31.703125 29.09375 Z M 29.769531 26.890625 "/>
<path style=" stroke:none;fill-rule:nonzero;fill:rgb(61.959839%,81.959534%,89.7995%);fill-opacity:1;" d="M 8.070312 38.527344 C 8.203125 37.769531 8.359375 37.019531 8.550781 36.285156 C 8.359375 37.019531 8.203125 37.769531 8.070312 38.527344 Z M 8.070312 38.527344 "/>
<path style=" stroke:none;fill-rule:nonzero;fill:rgb(61.959839%,81.959534%,89.7995%);fill-opacity:1;" d="M 8.007812 38.804688 L 8.023438 38.804688 C 8.039062 38.710938 8.050781 38.617188 8.070312 38.527344 C 8.050781 38.621094 8.023438 38.710938 8.007812 38.804688 Z M 8.007812 38.804688 "/>
<path style=" stroke:none;fill-rule:nonzero;fill:rgb(61.959839%,81.959534%,89.7995%);fill-opacity:1;" d="M 10.515625 56.660156 C 10.222656 56.042969 9.941406 55.417969 9.6875 54.777344 C 9.941406 55.417969 10.222656 56.042969 10.515625 56.660156 Z M 10.515625 56.660156 "/>
<path style=" stroke:none;fill-rule:nonzero;fill:rgb(61.959839%,81.959534%,89.7995%);fill-opacity:1;" d="M 21.027344 16.949219 L 26.949219 23.683594 L 24.265625 20.628906 Z M 21.027344 16.949219 "/>
<path style=" stroke:none;fill-rule:nonzero;fill:rgb(61.959839%,81.959534%,89.7995%);fill-opacity:1;" d="M 49 3.835938 L 44.195312 2.550781 L 26.882812 9.503906 L 40.097656 13.042969 Z M 49 3.835938 "/>
<path style=" stroke:none;fill-rule:nonzero;fill:rgb(61.959839%,81.959534%,89.7995%);fill-opacity:1;" d="M 17.855469 7.085938 C 13.089844 5.808594 8.859375 6.777344 5.417969 9.488281 L 13.582031 11.128906 L 5.417969 9.488281 C 3.945312 10.648438 2.617188 12.121094 1.453125 13.878906 C 1.097656 15.207031 1.886719 16.570312 3.214844 16.925781 L 18.035156 21.148438 L 26.949219 23.683594 L 21.027344 16.949219 L 24.265625 20.628906 L 22.101562 18.171875 L 24.128906 20.476562 L 23.84375 20.148438 L 25.648438 22.203125 L 35.832031 33.789062 L 40.636719 35.074219 L 36.078125 26.128906 L 33.800781 21.652344 L 36.078125 26.128906 L 37.039062 26.382812 C 43.835938 28.203125 47.359375 27.453125 54.25 26.039062 L 58.019531 25.265625 L 51.148438 19.863281 L 66.039062 31.574219 L 61.933594 24.464844 L 68.933594 20.761719 Z M 17.183594 12.09375 L 19.589844 12.738281 Z M 21.992188 13.382812 L 24.394531 14.023438 Z M 26.796875 14.667969 L 29.199219 15.3125 Z M 31.601562 15.957031 L 34.007812 16.597656 Z M 36.410156 17.242188 L 38.8125 17.886719 Z M 36.410156 17.242188 "/>
<path style=" stroke:none;fill-rule:nonzero;fill:rgb(61.959839%,81.959534%,89.7995%);fill-opacity:1;" d="M 33.800781 21.65625 L 36.078125 26.128906 Z M 33.800781 21.65625 "/>
<path style=" stroke:none;fill-rule:nonzero;fill:rgb(61.959839%,81.959534%,89.7995%);fill-opacity:1;" d="M 52.113281 16.257812 L 66.53125 20.121094 L 73.761719 2.742188 L 68.953125 1.453125 Z M 52.113281 16.257812 "/>
<path style=" stroke:none;fill-rule:nonzero;fill:rgb(61.959839%,81.959534%,89.7995%);fill-opacity:1;" d="M 9.683594 54.765625 C 8.773438 52.472656 8.144531 50.042969 7.828125 47.511719 C 8.144531 50.042969 8.773438 52.472656 9.683594 54.765625 Z M 9.683594 54.765625 "/>
<path style=" stroke:none;fill-rule:nonzero;fill:rgb(61.959839%,81.959534%,89.7995%);fill-opacity:1;" d="M 18.035156 21.148438 L 18 21.136719 C 13.484375 25.015625 10.148438 30.226562 8.582031 36.15625 C 10.152344 30.222656 13.511719 25.027344 18.035156 21.148438 Z M 18.035156 21.148438 "/>
<path style=" stroke:none;fill-rule:nonzero;fill:rgb(61.959839%,81.959534%,89.7995%);fill-opacity:1;" d="M 24.265625 20.628906 L 26.949219 23.683594 L 25.277344 21.78125 Z M 24.265625 20.628906 "/>
<path style=" stroke:none;fill-rule:nonzero;fill:rgb(61.959839%,81.959534%,89.7995%);fill-opacity:1;" d="M 36.078125 26.128906 L 40.636719 35.074219 Z M 36.078125 26.128906 "/>
<path style=" stroke:none;fill-rule:nonzero;fill:rgb(61.959839%,81.959534%,89.7995%);fill-opacity:1;" d="M 24.128906 20.476562 L 22.101562 18.171875 L 24.265625 20.628906 L 25.277344 21.78125 Z M 24.128906 20.476562 "/>
<path style=" stroke:none;fill-rule:nonzero;fill:rgb(61.959839%,81.959534%,89.7995%);fill-opacity:1;" d="M 35.832031 33.789062 L 25.648438 22.203125 L 29.769531 26.890625 Z M 35.832031 33.789062 "/>
<path style=" stroke:none;fill-rule:nonzero;fill:rgb(61.959839%,81.959534%,89.7995%);fill-opacity:1;" d="M 9.6875 54.777344 C 9.6875 54.773438 9.683594 54.769531 9.683594 54.765625 C 9.683594 54.769531 9.683594 54.773438 9.6875 54.777344 Z M 9.6875 54.777344 "/>
<path style=" stroke:none;fill-rule:nonzero;fill:rgb(98.81897%,84.309387%,78.42865%);fill-opacity:1;" d="M 15.164062 61.195312 C 20.292969 61.195312 23.257812 55.375 20.238281 51.230469 C 18.542969 48.894531 15.828125 47.511719 12.941406 47.511719 L 7.828125 47.511719 C 8.144531 50.042969 8.773438 52.472656 9.679688 54.765625 C 9.683594 54.769531 9.683594 54.773438 9.6875 54.777344 C 10.59375 57.070312 11.777344 59.222656 13.199219 61.195312 Z M 15.164062 61.195312 "/>
<path style=" stroke:none;fill-rule:nonzero;fill:rgb(61.959839%,81.959534%,89.7995%);fill-opacity:1;" d="M 18.035156 21.148438 L 26.949219 23.683594 Z M 18.035156 21.148438 "/>
<path style=" stroke:none;fill-rule:nonzero;fill:rgb(61.959839%,81.959534%,89.7995%);fill-opacity:1;" d="M 8.546875 36.285156 C 8.558594 36.242188 8.570312 36.199219 8.582031 36.15625 C 8.570312 36.199219 8.558594 36.242188 8.546875 36.285156 Z M 8.546875 36.285156 "/>
<path style=" stroke:none;fill-rule:nonzero;fill:rgb(61.959839%,81.959534%,89.7995%);fill-opacity:1;" d="M 23.84375 20.148438 L 24.128906 20.476562 L 25.648438 22.203125 Z M 23.84375 20.148438 "/>
<path style=" stroke:none;fill-rule:nonzero;fill:rgb(61.959839%,81.959534%,89.7995%);fill-opacity:1;" d="M 18.035156 21.148438 L 26.949219 23.683594 Z M 18.035156 21.148438 "/>
<path style=" stroke:none;fill-rule:nonzero;fill:rgb(98.81897%,84.309387%,78.42865%);fill-opacity:1;" d="M 13.546875 38.804688 C 18.675781 38.804688 22.90625 35.023438 23.632812 30.097656 L 28.730469 30.097656 C 29.851562 30.097656 30.871094 29.714844 31.703125 29.09375 L 29.769531 26.890625 L 25.277344 21.78125 L 26.949219 23.683594 L 18.035156 21.144531 C 13.511719 25.027344 10.152344 30.222656 8.582031 36.152344 C 8.570312 36.199219 8.558594 36.242188 8.546875 36.285156 C 8.332031 37.113281 8.152344 37.953125 8.007812 38.804688 Z M 13.546875 38.804688 "/>
<path style=" stroke:none;fill-rule:nonzero;fill:rgb(61.959839%,81.959534%,89.7995%);fill-opacity:1;" d="M 29.769531 26.890625 L 25.648438 22.203125 L 24.128906 20.476562 L 25.277344 21.78125 Z M 29.769531 26.890625 "/>
<path style=" stroke:none;fill-rule:nonzero;fill:rgb(98.81897%,84.309387%,78.42865%);fill-opacity:1;" d="M 66.867188 48.757812 L 54.851562 48.757812 C 51.652344 48.757812 49.015625 51.175781 48.671875 54.285156 C 48.238281 58.164062 45.144531 61.195312 41.238281 61.195312 C 37.078125 61.195312 33.707031 57.820312 33.707031 53.660156 L 33.707031 46.179688 C 33.707031 43.847656 34.632812 41.609375 36.28125 39.960938 L 37.347656 38.894531 L 39.925781 35.074219 L 36.195312 26.367188 L 42.414062 27.613281 L 54.851562 26.367188 L 58.582031 25.125 L 64.800781 31.34375 L 67.289062 40.050781 "/>
<path style=" stroke:none;fill-rule:nonzero;fill:rgb(7.449341%,17.248535%,28.62854%);fill-opacity:1;" d="M 74.082031 1.539062 L 69.273438 0.253906 C 68.875 0.144531 68.445312 0.246094 68.132812 0.519531 L 51.792969 14.886719 L 42.460938 12.386719 L 49.894531 4.703125 C 50.203125 4.382812 50.316406 3.929688 50.199219 3.503906 C 50.082031 3.082031 49.75 2.75 49.324219 2.636719 L 44.515625 1.347656 C 44.257812 1.277344 43.980469 1.292969 43.734375 1.394531 L 26.804688 8.195312 L 18.179688 5.882812 C 11.089844 3.984375 4.78125 6.582031 0.417969 13.195312 C 0.34375 13.304688 0.289062 13.429688 0.253906 13.558594 C -0.00390625 14.519531 0.128906 15.527344 0.625 16.390625 C 1.125 17.253906 1.929688 17.871094 2.875 18.125 L 15.542969 21.730469 C 12.222656 25.027344 9.71875 28.992188 8.167969 33.324219 C 8.152344 33.363281 8.136719 33.40625 8.125 33.445312 C 7.84375 34.238281 7.59375 35.042969 7.378906 35.859375 C 7.355469 35.957031 7.332031 36.050781 7.308594 36.148438 C 7.101562 36.957031 6.925781 37.773438 6.785156 38.597656 L 6.785156 38.601562 C 6.492188 40.300781 6.34375 42.03125 6.34375 43.78125 C 6.34375 45.097656 6.433594 46.390625 6.59375 47.660156 C 6.59375 47.664062 6.59375 47.664062 6.59375 47.667969 C 6.597656 47.679688 6.597656 47.695312 6.601562 47.707031 C 6.925781 50.265625 7.558594 52.726562 8.46875 55.050781 C 8.492188 55.113281 8.515625 55.179688 8.542969 55.242188 C 8.75 55.757812 8.964844 56.265625 9.195312 56.765625 C 9.230469 56.839844 9.261719 56.914062 9.296875 56.988281 C 9.558594 57.542969 9.828125 58.085938 10.121094 58.621094 C 10.152344 58.679688 10.191406 58.738281 10.222656 58.796875 C 10.464844 59.234375 10.714844 59.660156 10.976562 60.082031 C 11.109375 60.300781 11.25 60.511719 11.390625 60.726562 C 11.558594 60.984375 11.734375 61.246094 11.910156 61.5 C 12.007812 61.636719 12.09375 61.78125 12.191406 61.917969 C 12.214844 61.949219 12.242188 61.96875 12.265625 61.996094 C 17.917969 69.792969 27.09375 74.875 37.4375 74.875 C 54.582031 74.875 68.53125 60.925781 68.53125 43.78125 C 68.53125 40.003906 67.835938 36.242188 66.5 32.726562 C 66.625 32.675781 66.746094 32.609375 66.851562 32.515625 C 67.304688 32.125 67.414062 31.46875 67.117188 30.953125 L 63.65625 24.960938 L 69.515625 21.859375 C 69.96875 21.621094 70.226562 21.128906 70.171875 20.621094 C 70.113281 20.113281 69.75 19.691406 69.257812 19.558594 L 68.226562 19.285156 L 74.90625 3.21875 C 75.046875 2.886719 75.035156 2.511719 74.875 2.191406 C 74.71875 1.871094 74.429688 1.632812 74.082031 1.539062 Z M 44.273438 3.859375 L 46.636719 4.492188 L 39.714844 11.652344 L 30.808594 9.265625 Z M 9.546875 37.449219 C 9.691406 36.816406 9.855469 36.191406 10.042969 35.574219 C 10.066406 35.492188 10.089844 35.414062 10.113281 35.335938 C 11.632812 30.449219 14.472656 26.007812 18.347656 22.527344 L 26.253906 24.78125 L 29.71875 28.71875 C 29.398438 28.808594 29.066406 28.855469 28.730469 28.855469 L 23.632812 28.855469 C 23.015625 28.855469 22.492188 29.308594 22.402344 29.917969 C 21.757812 34.273438 17.953125 37.5625 13.546875 37.5625 L 9.519531 37.5625 C 9.527344 37.523438 9.539062 37.488281 9.546875 37.449219 Z M 13.855469 59.949219 C 13.820312 59.898438 13.78125 59.847656 13.746094 59.792969 C 13.660156 59.671875 13.585938 59.542969 13.503906 59.421875 C 13.328125 59.152344 13.148438 58.882812 12.980469 58.609375 C 12.734375 58.199219 12.496094 57.785156 12.269531 57.367188 C 12.242188 57.320312 12.21875 57.269531 12.195312 57.222656 C 11.984375 56.824219 11.777344 56.421875 11.585938 56.015625 C 11.566406 55.976562 11.550781 55.9375 11.53125 55.898438 C 11.335938 55.476562 11.148438 55.050781 10.96875 54.617188 C 10.960938 54.59375 10.949219 54.566406 10.9375 54.542969 C 10.757812 54.097656 10.589844 53.648438 10.429688 53.195312 C 10.421875 53.175781 10.417969 53.152344 10.410156 53.132812 C 10.25 52.675781 10.105469 52.214844 9.96875 51.75 C 9.960938 51.726562 9.957031 51.707031 9.949219 51.6875 C 9.816406 51.222656 9.695312 50.753906 9.585938 50.285156 C 9.578125 50.261719 9.574219 50.234375 9.570312 50.207031 C 9.460938 49.742188 9.363281 49.273438 9.28125 48.800781 C 9.277344 48.789062 9.277344 48.769531 9.273438 48.757812 L 12.941406 48.757812 C 15.421875 48.757812 17.773438 49.953125 19.234375 51.960938 C 20.371094 53.519531 20.523438 55.480469 19.648438 57.203125 C 18.773438 58.921875 17.097656 59.949219 15.164062 59.949219 Z M 66.042969 43.78125 C 66.042969 45.046875 65.953125 46.289062 65.792969 47.511719 L 54.851562 47.511719 C 51.042969 47.511719 47.851562 50.363281 47.433594 54.144531 C 47.066406 57.457031 44.40625 59.949219 41.238281 59.949219 C 37.773438 59.949219 34.949219 57.128906 34.949219 53.660156 L 34.949219 46.179688 C 34.949219 44.164062 35.734375 42.265625 37.160156 40.839844 L 38.226562 39.773438 L 36.46875 38.015625 L 35.402344 39.082031 C 33.507812 40.976562 32.460938 43.5 32.460938 46.179688 L 32.460938 53.660156 C 32.460938 58.5 36.402344 62.4375 41.238281 62.4375 C 45.675781 62.4375 49.402344 58.992188 49.90625 54.417969 C 50.183594 51.898438 52.3125 50 54.851562 50 L 65.355469 50 C 62.507812 62.792969 51.074219 72.386719 37.4375 72.386719 C 28.769531 72.386719 20.996094 68.507812 15.746094 62.398438 C 18.351562 62.199219 20.664062 60.691406 21.867188 58.332031 C 23.15625 55.796875 22.917969 52.796875 21.246094 50.496094 C 19.320312 47.847656 16.214844 46.269531 12.941406 46.269531 L 8.945312 46.269531 C 8.875 45.449219 8.832031 44.621094 8.832031 43.78125 C 8.832031 42.523438 8.921875 41.28125 9.085938 40.050781 L 13.546875 40.050781 C 18.808594 40.050781 23.40625 36.375 24.652344 31.34375 L 28.730469 31.34375 C 29.683594 31.34375 30.601562 31.113281 31.453125 30.691406 L 34.898438 34.609375 C 35.058594 34.792969 35.273438 34.925781 35.507812 34.988281 L 40.316406 36.277344 C 40.421875 36.304688 40.53125 36.320312 40.636719 36.320312 C 40.640625 36.320312 40.644531 36.316406 40.652344 36.316406 C 40.8125 36.3125 40.96875 36.273438 41.117188 36.210938 C 41.152344 36.195312 41.183594 36.179688 41.214844 36.160156 C 41.359375 36.085938 41.496094 35.988281 41.601562 35.855469 C 41.914062 35.476562 41.96875 34.949219 41.746094 34.511719 L 38.433594 28.007812 C 44.390625 29.328125 48.066406 28.578125 54.304688 27.296875 L 57.707031 26.601562 L 62.855469 30.652344 C 64.941406 34.691406 66.042969 39.222656 66.042969 43.78125 Z M 61.351562 23.367188 C 61.050781 23.527344 60.832031 23.796875 60.738281 24.125 C 60.644531 24.449219 60.6875 24.796875 60.855469 25.089844 L 61.730469 26.601562 L 51.917969 18.882812 C 51.378906 18.460938 50.597656 18.554688 50.171875 19.09375 C 49.746094 19.632812 49.839844 20.414062 50.378906 20.839844 L 55.144531 24.585938 L 53.804688 24.863281 C 53.390625 24.949219 52.984375 25.03125 52.597656 25.109375 C 46.71875 26.300781 43.40625 26.804688 37.359375 25.183594 L 36.9375 25.070312 L 34.910156 21.089844 C 34.597656 20.480469 33.847656 20.234375 33.238281 20.546875 C 32.625 20.859375 32.382812 21.609375 32.695312 22.21875 L 34.972656 26.695312 C 34.972656 26.695312 34.976562 26.695312 34.976562 26.699219 L 38.265625 33.152344 L 36.519531 32.683594 L 27.902344 22.878906 C 27.898438 22.875 27.890625 22.871094 27.886719 22.863281 L 23.039062 17.347656 L 21.964844 16.125 C 21.511719 15.609375 20.726562 15.5625 20.207031 16.015625 C 19.691406 16.46875 19.640625 17.253906 20.097656 17.769531 L 23.226562 21.328125 L 19.316406 20.214844 L 18.34375 19.941406 L 3.535156 15.726562 C 3.214844 15.640625 2.945312 15.433594 2.78125 15.144531 C 2.644531 14.90625 2.589844 14.636719 2.625 14.371094 C 3.453125 13.140625 4.484375 11.894531 5.734375 10.820312 L 13.339844 12.347656 L 13.828125 9.910156 L 8.71875 8.878906 C 11.09375 7.765625 14.003906 7.339844 17.539062 8.285156 L 26.5625 10.703125 L 30.972656 11.882812 L 51.792969 17.457031 L 65.554688 21.144531 Z M 65.800781 18.636719 L 54.679688 15.660156 L 69.273438 2.828125 L 72.066406 3.574219 Z M 65.800781 18.636719 "/>
<path style=" stroke:none;fill-rule:nonzero;fill:rgb(7.449341%,17.248535%,28.62854%);fill-opacity:1;" d="M 38.679688 63.679688 L 41.167969 63.679688 L 41.167969 66.167969 L 38.679688 66.167969 Z M 38.679688 63.679688 "/>
<path style=" stroke:none;fill-rule:nonzero;fill:rgb(7.449341%,17.248535%,28.62854%);fill-opacity:1;" d="M 42.414062 67.414062 L 44.902344 67.414062 L 44.902344 69.902344 L 42.414062 69.902344 Z M 42.414062 67.414062 "/>
<path style=" stroke:none;fill-rule:nonzero;fill:rgb(7.449341%,17.248535%,28.62854%);fill-opacity:1;" d="M 13.804688 41.292969 L 16.292969 41.292969 L 16.292969 43.78125 L 13.804688 43.78125 Z M 13.804688 41.292969 "/>
<path style=" stroke:none;fill-rule:nonzero;fill:rgb(7.449341%,17.248535%,28.62854%);fill-opacity:1;" d="M 16.863281 13.296875 L 17.507812 10.890625 L 19.910156 11.535156 L 19.265625 13.9375 Z M 16.863281 13.296875 "/>
<path style=" stroke:none;fill-rule:nonzero;fill:rgb(7.449341%,17.248535%,28.62854%);fill-opacity:1;" d="M 21.667969 14.582031 L 22.3125 12.179688 L 24.714844 12.824219 L 24.074219 15.226562 Z M 21.667969 14.582031 "/>
<path style=" stroke:none;fill-rule:nonzero;fill:rgb(7.449341%,17.248535%,28.62854%);fill-opacity:1;" d="M 26.476562 15.867188 L 27.121094 13.464844 L 29.523438 14.109375 L 28.878906 16.511719 Z M 26.476562 15.867188 "/>
<path style=" stroke:none;fill-rule:nonzero;fill:rgb(7.449341%,17.248535%,28.62854%);fill-opacity:1;" d="M 31.28125 17.15625 L 31.921875 14.753906 L 34.324219 15.394531 L 33.683594 17.800781 Z M 31.28125 17.15625 "/>
<path style=" stroke:none;fill-rule:nonzero;fill:rgb(7.449341%,17.248535%,28.62854%);fill-opacity:1;" d="M 36.085938 18.441406 L 36.730469 16.039062 L 39.132812 16.683594 L 38.488281 19.085938 Z M 36.085938 18.441406 "/>
</g>
</svg>
